<?xml version="1.0" encoding="UTF-8"?><svg id="uuid-acb1279f-dc30-4979-a472-a91915be1bd2" xmlns="http://www.w3.org/2000/svg" viewBox="0 0 265.54 274.16"><g id="uuid-2cc5866d-c41d-4c58-bdcc-a097cf0f0d8d"><path d="M227.78,160.69c5-5.06,7.92-11.34,10.66-17.77,3.65-8.54,3.43-17.51,3.27-26.49-.13-7.08-.76-14.2,1-21.17.82-3.27,2.09-6.28,5.76-7.48,1.44-.47,3.38.3,3.63,1.76,1.83,10.66,3.64,21.33,5.46,31.99.12.69.2,1.39.3,2.08.05.25.11.49.16.74,1.54,17.01-5.04,35.28-12.86,50.3-3.82,7.35-10.76,13.45-16.6,19.22-6.53,6.46-13.51,12.46-20.13,18.82-12.45,11.95-25.75,23.32-30.43,40.6-.81,2.98-.54,7.03-3.08,9.02-2.75,2.15-8.76,2.98-12.22,3.84-7.9,1.96-17.31,3.69-25.45,3.69,0-35.33,2.38-74.2,32.23-97.79,6.87-5.43,13.9-10.62,20.51-16.37,7.1-6.18,12.95-13.49,19.83-19.86,4.33-4.01,14.48-7.31,13.17,2.24-1.08,7.82-7.67,15.85-12.21,22.01-12.41,16.83-27.91,30.61-42.27,45.65,4.85,0,11.47-4.85,15.36-7.56,5.25-3.66,9.53-8.47,13.88-13.11,8.78-9.35,17.01-19.16,24.39-29.66,7.48-10.65,9.24-22.93,8.02-35.73-.63-6.61-2.33-13.65-1.8-20.31.4-4.99,3.79-10.86,9.23-6.8-3.94,11.65.59,25.52-.56,37.61-1.14,12.07-8.36,22.02-14.44,32.09-1.34,2.14-2.69,4.28-4.03,6.43,4.52-1.28,6.35-5.17,9.22-7.96Z" style="fill:#172b36;"/><path d="M132.47,68.8c-3.02-3.86-6.79-6.74-11.38-8.49,5.4-8.03,4.59-20.11-4.88-24.66q2.02-1.81,5.65.21c-.47-4.17-.16-4.09,2.86-6.95-4.01,1.01-5.36-1.11-5.82-4.65-1.01,3.12-2.3,5.67-6.35,4.62,1.53,1.85,4.72,2.97,1.97,6.06-11.98-2.99-20.23,6.4-19.13,17.97q-1.48.31-3.59-4.32c-1.03,2.91-1.72,6.06-5.79,4.76,2.67,3.28,2.69,3.75,1.78,7.99,2.66-1.49,4.98-3.46,7.92-1.12-.29-1.73-.51-2.64.17-4.22,1.34,1.08,2.02,2.27,2.96,3.7-5.65,2.53-11.48,6.29-14.4,11.94-2.9,5.59-2.72,12.39-3.23,18.51-2.39-.71-1.8-3.01-2.83-4.28-1.01.43-.73,2.62-1.57,3.44-1.27,1.25-2.43.98-4.16,1.24q2.55,2.84,1.56,7.44c2.36-1.47,3.72-3.12,6.16-1.18,1.91,1.52,3.32,4.51,4.71,6.51h-43.31c1.12-7.21-.31-13.29-6.71-17.2,2.06-3.96,4.51-2.04,7.22-.1-.81-4.12-.94-4.49,2.15-7.43-4.32-.82-4.47-1.08-6.09-5.29-1.62,3.89-1.68,4.41-5.9,5.11,2.78,2.9,2.8,3.17,1.65,7.12-3.5-1.01-6.42.04-8.86,2.31-2.53-2.29-4.72-4.95-8.15-5.69-1.61-.35-6,.82-6.26-1.62.16-.37.32-.75.48-1.12.16-.26.33-.52.49-.78,1.37-2.96,2.75-5.92,4.12-8.88.67-1.21,1.34-2.42,2.01-3.63,0,0-.04.03-.04.03.13-.15.27-.3.4-.46,0,0-.03.03-.03.03.13-.15.26-.3.39-.44.08-.07.09-.15.03-.24.36-.57.72-1.14,1.08-1.71.3-.64.59-1.29.89-1.93,7.72-10.2,15.7-20.45,25.33-28.96,9.56-8.45,20.54-14.4,31.66-20.5-.92,5.02.3,5.04-6.16,4.61,3.63,2.14,4.48,4.7,2.29,7.97.18.08.35.16.53.24,1.15-.67,2.9-2.24,4.26-2.16,1.32.07,2.65,1.6,3.92,2.16-1.42-3.24-1.29-5.89,2.92-7.31-4.97-.87-5.29-.87-6.83-5.68,3.33-1.39,6.55-2.72,9.92-4.12,1.25,2.03-.71,3.7-.5,5.71,1.47-.96,2.88-1.89,4.29-2.82,1.26,1.01,2.38,1.92,3.83,3.09-.7-3.8-.88-4.36,1.72-7.26h-2.8C107.35,2.39,119.88-.25,132.88.02c.02,5.71.03,11.43.05,17.14.03,4.32.07,8.64.1,12.95-.05,5.32-.09,10.64-.13,15.96,0,4.48,0,8.95-.01,13.43-.02.7-.02,1.4-.06,2.11-.11,2.4-.24,4.79-.36,7.19ZM20.59,73.5c3.86-2.63,4.22-2.75,8.05.01-.98-4.47-1.05-4.78,2.23-7.8-1.35-.51-2.73.41-3.99-.24-1.41-.72-2.03-3.83-2.57-5.13-.93,2.88-.92,6.3-5.59,5.24,2.54,3.33,2.75,3.8,1.77,7.79-.23.15-.26.28-.08.42.06-.1.12-.19.18-.29ZM74.62,49c1.17-1.07,2.55-2.12,4.2-2.04,1.55.07,2.26,1.61,3.57,1.71-.7-4.16-.61-4.46,2.5-7.17-.04-.25-.09-.5-.13-.75-4.36,1.7-5.45-1.06-6.25-4.34-2.03,4.07-1.8,4.28-6.35,5,3.35,2.8,2.9,3.36,2.46,7.63-.09-.05-.19-.1-.28-.15.09.04.18.08.28.11ZM64.81,48.36c-1.54,4.24-1.68,4.65-6.1,5.09-.18.12-.36.23-.54.35,4.69,1.39,3.68,4.47,2.62,7.76,2.85-2.67,5.5-3.54,8.2.07-.56-4.45-.71-4.76,2.34-8.05-4.87-.5-4.65-.89-6.51-5.22ZM51.81,36.14c-1.82,4.15-2.03,4.44-6.37,5.22,3.53,2.91,3.12,3.37,2.11,7.61,2.81-2.58,5.36-2.65,7.78.42.09-.31,2.41-8.03,2.38-7.91-4.23-.89-4.35-1.37-5.9-5.34ZM65,23.64c-1.68,4.46-1.92,4.69-6.46,5.73,4.1,1.49,3.57,4.35,2.38,7.7,2.7-3.13,5.21-2.98,7.97,0-1.56-3.66-.61-6.14,2.68-7.85-1.47-.21-3.71.37-4.86-.67-.95-.87-1.33-3.65-1.72-4.9ZM101.08,24.62c2.77-2.03,5.42-3.7,8.48.13-1.6-3.5-1.23-6.1,2.39-7.78-4.43-.95-4.62-.11-6.25-4.88-1.04,3.39-2.53,5.83-6.61,4.58,3.05,3.36,3.18,3.67,1.99,7.95ZM58.03,65.89c-4.54,1.09-5.5-1.79-6.45-5.02-.86,3.2-1.98,5.88-6.16,4.95.84,1,2.49,1.62,2.98,2.84.56,1.41-.52,3.54-.85,4.95,3.9-2.17,4.2-2.25,8-.12-1.92-3.35-1.05-5.68,2.48-7.6ZM71.61,78.63c-4.71-.8-4.83-.68-6.8-5.27-1.75,4.1-2.03,4.26-6.3,5.11,3.81,1.7,3.45,4.48,2.29,7.61,2.64-1.72,5.06-3.86,7.9-.21-1.02-3.21-1.08-5.83,2.91-7.25ZM85.82,28.72c3.29,3.77,3.12,3.89,1.9,8.55,2.9-2.44,5.55-4.1,8.51-.4-1.61-3.36-1.3-5.91,2.37-7.54-4.83-.69-5.02-.88-6.98-5.23-.78,3.3-1.58,6.19-5.81,4.63ZM34.31,61.44c2.77-2.71,5.37-3,8.06.07-.49-4.44-1.34-4.67,2.31-7.67.02-.2.05-.4.07-.6-4.74,1.77-5.32-1.65-6.18-5.03-1.93,4.89-1.99,4.8-6.91,5.76,5.12,1.33,3.37,4.42,2.66,7.47ZM72.18,65.53c2.74,3.32,2.94,3.72,1.93,7.8.09.17.19.33.28.5,2.41-2.76,4.99-3.44,8.07-.74-2.03-3.39-.38-5.35,2.4-7.12-4.89-.62-4.76-.94-6.89-5.22-.32,3.97-1.8,6.07-5.79,4.79ZM51.46,95.45c1.28.68,2.51,1.33,3.74,1.99-1.17-3.01-.81-5.41,2.47-7.2-4.49,1.43-5.35-1.61-6.52-4.73-.11,4.43-2.89,4.82-6.23,4.64.92,1.03,2.75,1.37,3.31,2.67.61,1.39-.74,4.03-1.12,5.36,1.76-1.1,3.06-1.91,4.34-2.72ZM114.69,12.99c.11.19.23.39.34.58,2.27-3.04,4.65-3.72,7.41-.49-2.2-3.22-.38-5.1,1.86-7.09-4.52,2.05-4.49-2.24-6.42-4.41.43,4.43-2.08,4.82-5.15,4.71,1.11.85,2.21,1.7,3.26,2.51-.46,1.49-.88,2.85-1.3,4.21Z" style="fill:#172b36;"/><path d="M188.37,75.03c-3.54.12-7.09.27-10.63.33-.58,0-1.55-.25-1.68-.62-1.18-3.34-3.76-5.47-6.03-7.29.95-2.75,1.82-5.27,2.78-8.06.24-.04.86-.16,1.49-.27,15.11-.01,30.22-.02,45.33-.03,3.45,0,6.89,0,10.34-.01,3.11,0,8.86-1.14,11.68.12,2.41,1.08,3.57,4.76,4.81,6.93,1.7,2.97,3.49,5.89,5,8.97-20.96,0-42.16-.99-63.09-.06Z" style="fill:#a0732d;"/><path d="M1.75,164.61c-.4-3.09-2.91-10.81-1.11-13.49,4.38,10.24,6.94,21.02,11.97,31.1,5.04,10.09,11.17,19.62,18.24,28.4,7.16,8.89,15.22,17.15,24.24,24.17,4.74,3.69,9.75,6.88,14.85,10.02,2.02,1.24,5.05,2.44,6.49,4.4,1.44,1.97,1.83,5.73,2.55,8.05h-1.66s0,.02,0,.02c-.14-.11-.28-.21-.42-.32-9.07-4.65-18.11-9.03-25.96-15.65-7.87-6.64-15.31-14.07-22.13-21.78-6.57-7.43-12.33-15.97-16.8-24.83-4.81-9.53-7.3-19.9-10.26-30.1Z" style="fill:#a0732d;"/><path d="M263.86,161.49c-.07.08-.1.17-.08.28-5.37,17.36-10.33,34.02-20.82,49.13-10.18,14.67-23.6,25.15-37.41,36.16-6.24,4.05-12.74,7.59-19.62,10.39-.16-.15-.33-.3-.49-.45.8-2.63,1.5-5.31,2.48-7.88.27-.7,1.33-1.18,2.11-1.6,14.45-7.74,27.24-17.63,38.27-29.72,6.82-7.48,12.64-15.74,17.42-24.66,4.36-8.13,8.7-16.3,12.41-24.73,2.28-5.18,3.34-10.9,5.02-16.36.28-.92.93-1.72,1.41-2.58.32.11.65.22.97.33-.16,1.29-.32,2.59-.48,3.88-.26,1.82-.51,3.64-.77,5.46-.06.25-.12.5-.18.75-.09.54-.17,1.07-.26,1.61Z" style="fill:#a0732d;"/><path d="M40.94,161.88c-4.67-8.07-9.68-16.03-12.12-25.12-2.56-9.51-1.29-19.74-1.09-29.47.05-2.18.1-4.36.14-6.53.03-1.55-.82-5.54-.28-6.94,1.48-3.78,5.57-3.31,7.53-.15,2.31,3.74.7,10,.41,14.12-.34,4.89-.66,9.78-.94,14.67-.56,9.99-.48,18.41,4.55,27.4,4.3,7.7,10.02,14.98,15.69,21.71,6.4,7.59,13.37,15.06,20.55,21.93,5.5,5.26,13.6,10.63,21.21,11.89-5.93-6.44-12.95-11.94-19.12-18.18-6.22-6.28-12.08-12.91-17.76-19.67-5.5-6.55-10.93-13.43-15.01-20.99-1.57-2.92-4.53-7.95-3.68-11.39.93-3.75,4.72-4.67,7.86-3.29,7.09,3.12,12.61,11.82,17.95,17.14,6.71,6.68,13.96,12.53,21.56,18.15,14.27,10.56,24.99,22.07,31.08,39.04,3.44,9.61,5.35,19.74,6.53,29.86.64,5.53,1.01,11.09,1.25,16.65.23,5.27,1.12,11.21.09,16.38-6-.55-11.99-1.09-17.99-1.64-1.55-.26-3.09-.52-4.64-.78-1.58-.49-3.17-.98-4.75-1.47-4.01-1.02-10.03-1.18-12.1-4.96-2.36-4.3-2.49-10.45-4.46-15.07-3.67-8.6-9.63-15.93-16.29-22.4-7.95-7.72-16.24-15.12-24.33-22.68-7.52-7.02-16.78-13.74-22.26-22.58-5.47-8.83-7.57-19.74-11.07-29.43-1.29-3.56-1.79-6.83-2.73-10.48-1.33-5.13-.34-9.52.45-14.73,1.58-10.36,2.95-20.87,5.25-31.1.93-4.14,3.1-5.19,6.61-2.01,3.05,2.76,3.24,6.83,3.41,10.68.51,11.75-1.5,24.72,1.51,36.17,2.72,10.33,8.39,19.98,15.8,27.64,1.17,1.07,1.67,1.74,3.25,2.07.13-1.9-.97-2.88-2.05-4.43Z" style="fill:#172b36;"/><path d="M132.89,46.08c.04-5.32.09-10.64.13-15.96.19,0,.39-.01.58-.02,7.93.02,15.86.05,23.8.04,18.27,0,36.54-.03,54.82-.04,2.25.55,4.74.37,6.57,2.24,1.71,1.73,3.5,3.38,5.26,5.06.22.19.44.38.65.57.38.38.76.77,1.14,1.15.4.4.81.8,1.21,1.21,1.46,1.55,2.92,3.09,4.37,4.64l.32.45c.8,1.27-.55.55-.79.86-20.27-1.19-41.05-.39-61.34.16-3.93-10.12-18.65-10.6-23.92-5.63-1.58,1.49-2.87,3.29-4.57,5.28h-8.23Z" style="fill:#a0732d;"/><path d="M174.31,95.78c-2.71,5.9-7.85,9.38-13.01,12.75-2.97,1.94-6.25,3.4-9.38,5.08-.16-2.28-.32-4.56-.48-6.84,4.64-2.5,8.94-6.02,12.58-9.82,3.59-3.76,2.43-7.04,2.02-11.94-.18-.04-.36-.08-.54-.13-1.67,3.37-1.41,6.58-4.33,9.46-3.45,3.4-7.93,6.09-11.81,8.99-1.71-2.26-5.01-5.25-5.9-7.92-.87-2.59.32-5.42.2-8.11-.16-3.42-2.07-5.14-3.04-8.04-.82-2.45.91-4.15,2.84-5.91,2.48-2.27,4.54-2.27,3.66-5.73-.68-2.67-2.32-4.94-2.79-7.75-.87-5.17.52-11.25,4.91-14.59,9.5-7.22,18.75,4.4,17.68,13.69-.47,4.1-4.85,8.9-1.75,12.22,3.74,4,7.49,5.61,8.38,11.68.27,2.34.54,4.69.81,7.03.06.65.11,1.31.17,1.96-.07,1.31-.14,2.61-.21,3.92ZM151.67,70.24c-2.86,6.67,8.64,5.23,10.19-.06q-2.51-.05-2.85-.99c.83-1.9,4.13-7.02,3.83-8.98-.28-1.89-1.68-2-3.21-2.82-4.07-2.18-5.63-5.39-8.49-8.74-.75,4.43-3.59,9.1-2.12,13.49-1.64,1.49,1.35,6.81,2.64,8.1Z" style="fill:#a0732d;"/><path d="M130.25,74.94c-8.74,2.22-14.74,11.42-9.03,19.81-2.37,2.59-4.65,5.09-7.24,7.92-3.71-2.85-7.44-5.66-11.12-8.54-4.06-3.18-4.55-4.68-5.7-9.6-.24.02-.48.04-.72.06-.26,2.73-.51,5.45-.78,8.3,3.93,3.89,8.39,7.18,12.95,10.28,3.07,2.08,9.34,4.5,11.17,7.87,2.86,5.26-5.07,4.1-7.53,3.08-5.25-2.17-9.9-5.41-14.6-8.57-3.3-2.22-8.77-4.64-10.29-8.62-1.58-4.14-.1-10.92.3-15.27.93-10.21,6.61-14.32,16.03-17.04,2.19,7.8,4.35,15.5,6.63,23.64,2.14-7.9,3.86-15.64,5.22-23.71,5.63,2.21,11.48,4.2,14.69,10.39Z" style="fill:#172b36;"/><path d="M155.63,117.42c3.96-2.71,7.97-5.45,12.39-8.48,1.79,10.96,2.9,22.02,4.17,33.05.59,5.13,2.06,10.92,1.67,16.08-.3,4-3.23,5.35-7.15,6.41-4.61,1.24-22.28,2.72-24.14-1.7-.78-1.86.31-6.43.41-8.48.13-2.83.27-5.67.4-8.5.26-5.7.52-11.4.78-17.1,3.38,3.72,9.27,12.45,14.51,6.42,4.18-4.8-1.17-12.81-3.04-17.69Z" style="fill:#a0732d;"/><path d="M124.26,112.12c-2.47-1.77-4.1-4.07-6-6.43,1.14-2.13,4.54-6.23,7.25-6.19,2.19.03,3.54,2.62,5.93,2.76,2.7.15,4.37-2.7,6.92-2.41,2.81.32,5.52,3.91,6.69,6.2-1.96,2.09-3.45,4.07-4.93,6.49-.49-.62-.92-1.17-1.36-1.71-.15.03-.29.05-.44.08.28,1.09.57,2.18.85,3.27.45,1.58.9,3.15,1.36,4.73-.22,6.95-.42,13.91-.65,20.86-.23,7.01.19,14.65-1.45,21.51-.47,1.98-.87,3.88-3.48,3.24-2.78-.68-2.24-3.63-2.29-5.93-.17-7.47-.4-14.92-.4-22.39-.92-.06-1.55-.1-2.65-.18,0,7.44.01,14.88-.2,22.33-.07,2.53.13,6.49-3.51,6.32-3.21-.15-2.77-3.38-2.9-5.71-.86-15.57-2.76-31.59,1.2-46.81,0,0,.06.05.06.05v-.08Z" style="fill:#172b36;"/><path d="M107.44,164.53h-11.97v-40.62h-3.54v-17.1c5.36,3.47,10.54,6.83,15.91,10.31-2,4.6-7.86,13.8-2.47,18.17,5.2,4.21,10.75-4.21,13.43-7.63v36.72h-8.71v-25.69c-1.01-.08-1.55-.12-2.66-.2v26.04Z" style="fill:#172b36;"/><path d="M132.93,17.16c-.02-5.71-.03-11.43-.05-17.14,11.47.92,22.91,1.85,34.05,4.94,5.18,1.44,10.23,3.3,15.18,5.38,4.46,1.87,10.15,3.45,13.74,6.82h-62.92Z" style="fill:#a0732d;"/><path d="M225.31,87.63h1.92c-4.9,4.43-4.94,10.02-4.41,15.91h-46.24c-.2-1.34,2.86-5.41,3.23-7.28.54-2.72-.32-5.73.34-8.33,2.72-.05,5.44-.1,8.16-.15,3.68,0,7.36-.01,11.04-.02,0,0,.16.07.16.07l.17-.05c.42,0,.83,0,1.25.01,7.82.04,15.65.08,23.47.1.3,0,.61-.17.91-.27Z" style="fill:#a0732d;"/><path d="M178.96,116.42h45.92c.47,3.58.95,7.19,1.42,10.79-.13.09-.27.19-.4.28-3.34-3.08-8.32-3.41-12.55-2.24-3.86,1.07-5.72,3.93-8.84,6.03-3.17,2.13-8.36,1.21-12.16,1.22-5.13.01-10.41.35-15.52-.11-.31-2.39-3.38-14.51-1.77-15.92,1.3-.01,2.59-.03,3.89-.04Z" style="fill:#a0732d;"/><path d="M86.32,116.44c1.18,4.33-1.71,9.43,3.58,12.21-.05,1.09-.12,2.31-.18,3.67-5.3,0-10.6-.05-15.9-.06-3.97,0-9.59,1.18-13.21-.45-3.25-1.47-5.19-4.77-8.74-6.09-4.33-1.61-8.33-.94-12.67.06.38-3.36.72-6.3,1.06-9.33h46.05Z" style="fill:#a0732d;"/><path d="M154.41,177.23c-3.27,3.72-6.4,7.59-8.79,11.94-1.61,2.93-1.76,3.03-4.96,3.17-3.03.13-6.09.03-9.12.04-4.2.01-10.12,1.81-12.59-2.13-2.82-4.48-5.79-8.74-8.98-13.02h44.45Z" style="fill:#a0732d;"/><path d="M101.08,50.14c.17-12.96,18.91-13.04,17.72-.02-.43,4.68-3.37,9.66-8.42,10.1-6.05.53-8.53-5.07-9.3-10.08Z" style="fill:#172b36;"/><path d="M138.72,88.03c.03,10.65-15.49,9.79-14.32-.65,1.01-8.98,14.31-8.55,14.32.65Z" style="fill:#172b36;"/><path d="M89.9,145.9v14.81c-6.38-4.69-11.92-9.62-17.93-14.81h17.93Z" style="fill:#a0732d;"/><path d="M133.86,222.3c-1.14-.09-2.28-.19-3.24-.27-1.41-5.45-2.79-10.77-4.2-16.2h11.05c-1.18,5.4-2.39,10.88-3.61,16.47Z" style="fill:#a0732d;"/><path d="M132.47,68.8c.12-2.4.24-4.79.36-7.19.03-.7.04-1.41.06-2.11,4.89.09,5.81-.05,7.16,4.95.63,2.34,1.16,2.03-.08,4.22-.9,1.58-2.96,3.3-4.19,4.7-1.07-1.48-2.19-3.03-3.31-4.58Z" style="fill:#a0732d;"/><path d="M143.77,118.87c2.44.64,4.85.71,7.3-.64.72,1.92,6.63,13.55,3.15,14.36-3.11.71-10.03-11.36-10.41-13.76l-.03.05Z" style="fill:#172b36;"/><path d="M191.47,145.67c-3.91,3.57-7.76,7.08-11.8,10.77-.57-3.64-1.1-7.1-1.68-10.77h13.48Z" style="fill:#a0732d;"/><path d="M119.13,118.08c-1.42,2.45-6.28,14.17-9.84,13.43-3.52-.74,2-11.23,2.81-13.4h7.08l-.05-.03Z" style="fill:#172b36;"/><path d="M109.36,267.45c6,.55,11.99,1.09,17.99,1.64-1.93,1.53-5.53,1.83-4.36,5.07-2.36-2.64-9.67-2.23-13.03-2.84.08-.19.17-.39.25-.58-.28-1.1-.57-2.19-.85-3.29Z" style="fill:#dfddda;"/><path d="M151.44,106.77c.16,2.28.32,4.56.48,6.84-1.86.61-8.4,3.7-7.66-.81.42-2.58,5.24-4.93,7.19-6.03Z" style="fill:#172b36;"/><path d="M212.22,30.09c-18.27.02-36.54.04-54.82.04-7.93,0-15.86-.03-23.8-.04,6.26-1.02,12.99-.39,19.33-.39,7.04,0,14.08,0,21.12,0,6.64,0,13.3.11,19.94-.04" style="fill:#dfddda;"/><path d="M227.78,160.69c-2.87,2.79-4.7,6.68-9.22,7.96,1.34-2.14,2.69-4.28,4.03-6.43.46-.15,1.04-.17,1.37-.46,1.12-.99,2.33-1.47,3.82-1.08Z" style="fill:#dfddda;"/><path d="M99.97,265.2c1.58.49,3.17.98,4.75,1.47-.42.84-.84,1.68-1.39,2.76-1.74-.97-3.42-2.01-5.21-2.88.62-.45,1.23-.9,1.85-1.35Z" style="fill:#dfddda;"/><path d="M225.31,87.63c-.3.09-.61.27-.91.27-7.82-.02-15.65-.06-23.47-.1.31-.08.62-.22.94-.22,7.82,0,15.63.03,23.45.06Z" style="fill:#dfddda;"/><path d="M40.94,161.88c1.08,1.55,2.18,2.53,2.05,4.43-1.58-.33-2.08-1-3.25-2.07.47-.07.94-.14,1.39-.2-.08-.82-.14-1.49-.2-2.15Z" style="fill:#dfddda;"/><path d="M140.53,118.9c-.45-1.58-.9-3.15-1.36-4.73.82.7,1.99,1.26,2.33,2.15.25.64-.61,1.71-.97,2.58Z" style="fill:#dfddda;"/><path d="M174.36,89.91c-.27-2.34-.54-4.69-.81-7.03.37,1.02.96,2.01,1.07,3.06.13,1.3-.15,2.65-.25,3.97Z" style="fill:#dfddda;"/><path d="M188.31,87.78c-2.72.05-5.44.1-8.16.15,2.72-.05,5.44-.1,8.16-.15Z" style="fill:#dfddda;"/><path d="M264.3,159.13c.26-1.82.51-3.64.77-5.46.66,1.95.54,3.79-.77,5.46Z" style="fill:#dfddda;"/><path d="M174.31,95.78c.07-1.31.14-2.61.21-3.92,1.16,1.37.22,2.63-.21,3.92Z" style="fill:#dfddda;"/><path d="M178.96,116.42c-1.3.01-2.59.03-3.89.04,1.3-.01,2.59-.03,3.89-.04Z" style="fill:#dfddda;"/><path d="M64.43,18.13c-.34.61-.68.63-1.03.08.33-.56.67-.59,1.03-.08Z" style="fill:#dfddda;"/><path d="M263.86,161.49c.09-.54.17-1.07.26-1.61.66.66.8,1.23-.26,1.61Z" style="fill:#dfddda;"/><path d="M227.05,40.31c-.4-.4-.81-.8-1.21-1.21.4.4.81.8,1.21,1.21Z" style="fill:#dfddda;"/><path d="M224.7,37.96c-.22-.19-.44-.38-.65-.57.37-.17.74-.34,1.58-.72-.51.71-.71,1-.92,1.29Z" style="fill:#dfddda;"/><path d="M231.75,45.41l-.32-.45.32.45Z" style="fill:#dfddda;"/><path d="M143.8,118.82c-.09,0-.19.01-.28.02.03-.08.05-.16.08-.25.06.09.11.18.17.27,0,0,.03-.05.03-.05Z" style="fill:#172b36;"/><path d="M119.19,118.11c-.02-.09-.05-.17-.07-.26.08,0,.16.01.24.02-.08.07-.15.14-.23.21,0,0,.05.03.05.03Z" style="fill:#172b36;"/><path d="M199.67,87.78l-.17.05s-.16-.07-.16-.07c.12-.12.22-.11.33.02Z" style="fill:#dfddda;"/><path d="M114.69,12.99c.42-1.36.84-2.72,1.3-4.21-1.05-.81-2.16-1.66-3.26-2.51,3.07.11,5.58-.28,5.15-4.71,1.94,2.17,1.9,6.46,6.42,4.41-2.23,1.99-4.06,3.88-1.86,7.09-2.77-3.23-5.14-2.55-7.41.49-.11-.19-.23-.39-.34-.58Z" style="fill:#dfddda;"/><path d="M151.89,69.93c2.37-.25,4.75-.49,7.12-.74q.34.94,2.85.99c-1.56,5.29-13.05,6.73-10.2.06.08-.1.15-.2.23-.3Z" style="fill:#dfddda;"/><path d="M151.89,69.93c-.08.1-.15.2-.23.3-1.3-1.29-4.28-6.61-2.64-8.1.96,2.6,1.91,5.2,2.87,7.79Z" style="fill:#172b36;"/></g></svg>